<svg xmlns="http://www.w3.org/2000/svg" width="152" height="50" fill="none" viewBox="0 0 152 50">
  <g clip-path="url(#a)">
    <path fill="#724204" d="M14.717 39.478c-2.198 0-4.188-.255-5.972-.765-1.752-.541-3.313-1.306-4.683-2.293a19.577 19.577 0 0 1-3.679-3.584l4.922-5.59c1.592 2.134 3.185 3.568 4.778 4.3a12.082 12.082 0 0 0 5.017 1.1c.86 0 1.64-.112 2.34-.335.701-.223 1.243-.542 1.625-.956.383-.446.574-.987.574-1.624 0-.478-.128-.908-.383-1.29a3.168 3.168 0 0 0-.955-1.004 7.149 7.149 0 0 0-1.481-.764 11.073 11.073 0 0 0-1.816-.621c-.637-.192-1.29-.35-1.959-.478-1.848-.414-3.456-.924-4.826-1.53-1.37-.604-2.516-1.337-3.44-2.197a8.91 8.91 0 0 1-2.007-3.01c-.446-1.147-.669-2.421-.669-3.823 0-1.497.335-2.866 1.004-4.109a10.46 10.46 0 0 1 2.771-3.249c1.179-.923 2.532-1.624 4.061-2.102a15.009 15.009 0 0 1 4.778-.764c2.198 0 4.077.238 5.638.716 1.593.446 2.947 1.1 4.062 1.96a12.301 12.301 0 0 1 2.914 3.105l-5.017 4.826a10.225 10.225 0 0 0-2.198-2.055 9.079 9.079 0 0 0-2.484-1.242 8.406 8.406 0 0 0-2.676-.43c-.955 0-1.784.127-2.484.382-.67.223-1.195.558-1.577 1.004-.382.414-.573.923-.573 1.528 0 .542.159 1.004.477 1.386.319.382.749.733 1.29 1.051.542.287 1.163.542 1.864.765.7.19 1.433.35 2.198.477 1.752.35 3.328.813 4.73 1.386 1.433.573 2.66 1.274 3.679 2.102 1.051.829 1.848 1.816 2.389 2.963.573 1.115.86 2.42.86 3.918 0 2.325-.573 4.3-1.72 5.924-1.115 1.593-2.66 2.82-4.635 3.68-1.943.828-4.188 1.242-6.737 1.242ZM29.28 49.512V13.629h7.263l.286 5.686-1.433-.43c.223-1.052.764-2.007 1.624-2.867.86-.86 1.944-1.545 3.25-2.055a11.102 11.102 0 0 1 4.204-.812c2.166 0 4.093.573 5.782 1.72 1.688 1.115 3.01 2.66 3.965 4.635.988 1.943 1.481 4.204 1.481 6.785 0 2.548-.493 4.81-1.48 6.784-.956 1.975-2.294 3.536-4.014 4.683-1.688 1.115-3.631 1.672-5.83 1.672-1.433 0-2.803-.27-4.108-.812-1.306-.542-2.405-1.274-3.297-2.198-.892-.924-1.481-1.927-1.768-3.01l1.768-.67v16.772H29.28ZM42.515 32.98c1.147 0 2.15-.271 3.01-.813.86-.573 1.53-1.353 2.007-2.34.478-.988.717-2.167.717-3.537 0-1.337-.24-2.5-.717-3.487-.478-1.02-1.147-1.8-2.007-2.342-.828-.573-1.831-.86-3.01-.86-1.178 0-2.198.271-3.058.813-.86.541-1.529 1.321-2.007 2.34-.477 1.02-.716 2.199-.716 3.537 0 1.37.239 2.548.716 3.535.478.988 1.147 1.768 2.007 2.341.86.542 1.88.813 3.058.813ZM57.383 39V13.629h7.645V39h-7.645Zm3.823-30.388c-1.434 0-2.565-.335-3.393-1.003-.796-.701-1.194-1.689-1.194-2.963 0-1.147.414-2.086 1.242-2.819.828-.732 1.943-1.099 3.345-1.099 1.433 0 2.548.35 3.344 1.051.797.67 1.195 1.625 1.195 2.867 0 1.179-.414 2.134-1.242 2.867-.797.733-1.896 1.099-3.297 1.099Zm18.316 30.866c-2.453 0-4.651-.574-6.594-1.72a12.811 12.811 0 0 1-4.635-4.683c-1.115-2.007-1.672-4.268-1.672-6.785 0-2.516.557-4.762 1.672-6.736 1.147-2.007 2.692-3.584 4.635-4.73 1.943-1.147 4.14-1.72 6.594-1.72 2.261 0 4.332.397 6.21 1.194 1.912.796 3.425 1.91 4.54 3.344l-4.157 4.97a9.832 9.832 0 0 0-1.577-1.434 7.53 7.53 0 0 0-2.006-1.051 6.932 6.932 0 0 0-2.294-.382c-1.21 0-2.277.286-3.201.86-.924.541-1.64 1.306-2.15 2.293-.51.988-.765 2.118-.765 3.393 0 1.21.255 2.309.765 3.296a6.22 6.22 0 0 0 2.198 2.342c.924.573 1.975.86 3.153.86.828 0 1.593-.096 2.294-.287a6.722 6.722 0 0 0 1.91-.956 8.364 8.364 0 0 0 1.673-1.529l4.11 5.017c-1.084 1.37-2.597 2.453-4.54 3.25-1.911.796-3.966 1.194-6.163 1.194ZM91.032 39V13.629h7.646V39h-7.645Zm3.823-30.388c-1.433 0-2.564-.335-3.392-1.003-.796-.701-1.195-1.689-1.195-2.963 0-1.147.414-2.086 1.243-2.819.828-.732 1.943-1.099 3.344-1.099 1.434 0 2.548.35 3.345 1.051.796.67 1.194 1.625 1.194 2.867 0 1.179-.414 2.134-1.242 2.867-.796.733-1.895 1.099-3.297 1.099Z"/>
    <path fill="#A5740B" d="M104.141 39V7.226h7.644V39h-7.644Zm-4.492-18.682v-6.69h17.058v6.69H99.649Zm26.736 19.112c-2.134 0-4.046-.557-5.734-1.672-1.656-1.147-2.978-2.708-3.966-4.683-.987-2.007-1.481-4.268-1.481-6.785 0-2.58.494-4.857 1.481-6.832.988-1.975 2.342-3.52 4.062-4.635 1.72-1.146 3.679-1.72 5.877-1.72 1.21 0 2.309.175 3.296.526a8.38 8.38 0 0 1 2.676 1.481 8.99 8.99 0 0 1 1.959 2.15c.542.796.94 1.656 1.195 2.58l-1.577-.19v-6.021h7.597V39h-7.74v-6.116l1.72-.048a8.135 8.135 0 0 1-1.243 2.533 9.395 9.395 0 0 1-2.102 2.102 10.382 10.382 0 0 1-2.771 1.433 9.931 9.931 0 0 1-3.249.526Zm2.102-6.45c1.179 0 2.198-.271 3.058-.813.86-.541 1.529-1.306 2.007-2.293.478-1.02.716-2.214.716-3.583 0-1.37-.238-2.549-.716-3.536-.478-1.02-1.147-1.8-2.007-2.341-.86-.574-1.879-.86-3.058-.86-1.147 0-2.15.286-3.01.86-.828.541-1.481 1.321-1.959 2.34-.478.988-.717 2.167-.717 3.537s.239 2.564.717 3.583c.478.988 1.131 1.752 1.959 2.293.86.542 1.863.813 3.01.813Z"/>
    <path fill="#E8CA2C" d="M147.417 39.526c-1.306 0-2.326-.367-3.058-1.1-.701-.732-1.052-1.783-1.052-3.153 0-1.274.383-2.31 1.147-3.106.765-.796 1.752-1.194 2.963-1.194 1.306 0 2.325.382 3.057 1.147.733.732 1.099 1.784 1.099 3.153 0 1.242-.382 2.262-1.146 3.058-.765.796-1.768 1.195-3.01 1.195Z"/>
  </g>
  <defs>
    <clipPath id="a">
      <path fill="#fff" d="M0 0h152v50H0z"/>
    </clipPath>
  </defs>
</svg>
